# xmcd CD database file
#
# Track frame offsets:
#	150
#	24365
#	48677
#	72860
#
# Disc length: 1084 seconds
#
# Revision: 0
# Processed by: cddbd v1.5PL3 Copyright (c) Steve Scherf et al.
# Submitted via: CDex 1.40Release
#
DISCID=2f043a04
DTITLE=佐藤　裕美 - 空への路
DYEAR=1900
DGENRE=Techno
TTITLE0=空への路
TTITLE1=空への路 Twllght Beach Version
TTITLE2=空への路 カラオケ Version
TTITLE3=空への路 オルゴール Version
EXTD=
EXTT0=
EXTT1=
EXTT2=
EXTT3=
PLAYORDER=
